<svg width="30" height="30" viewBox="0 0 30 30" fill="none" xmlns="http://www.w3.org/2000/svg">
<path fill-rule="evenodd" clip-rule="evenodd" d="M18.4485 5H23.5714C24.3291 5 25.0559 5.30102 25.5917 5.83684C26.1275 6.37266 26.4285 7.09938 26.4285 7.85714V12.98C26.4284 13.3589 26.2779 13.7222 26.01 13.99L16.3057 23.6943C15.7699 24.2299 15.0433 24.5308 14.2857 24.5308C13.5281 24.5308 12.8015 24.2299 12.2657 23.6943L7.73424 19.1629C7.19861 18.6271 6.89771 17.9005 6.89771 17.1429C6.89771 16.3852 7.19861 15.6587 7.73424 15.1229L17.4385 5.41857C17.7064 5.15064 18.0697 5.00008 18.4485 5V5Z" stroke="black" stroke-linecap="round" stroke-linejoin="round"/>
<path d="M12.1429 23.5715L9.2672 25.0086C8.9091 25.1877 8.51736 25.2895 8.11738 25.3075C7.7174 25.3254 7.31812 25.2591 6.94542 25.1128C6.57271 24.9665 6.23492 24.7436 5.95393 24.4583C5.67294 24.1731 5.45503 23.832 5.31434 23.4572L3.0072 17.3057C2.767 16.6649 2.7648 15.9591 3.00102 15.3168C3.23724 14.6745 3.69618 14.1383 4.29434 13.8057L15.0001 7.85718" stroke="black" stroke-linecap="round" stroke-linejoin="round"/>
<path d="M24.2859 8.57139C24.2859 7.78242 23.6463 7.14282 22.8573 7.14282C22.0683 7.14282 21.4287 7.78242 21.4287 8.57139C21.4287 9.36037 22.0683 9.99997 22.8573 9.99997C23.6463 9.99997 24.2859 9.36037 24.2859 8.57139Z" fill="black"/>
</svg>
