<svg width="30" height="30" viewBox="0 0 30 30" fill="none" xmlns="http://www.w3.org/2000/svg">
<path fill-rule="evenodd" clip-rule="evenodd" d="M6.42868 7.85718H23.5715C24.3293 7.85718 25.056 8.1582 25.5918 8.69402C26.1277 9.22983 26.4287 9.95656 26.4287 10.7143V20.7143C26.4287 21.4721 26.1277 22.1988 25.5918 22.7346C25.056 23.2704 24.3293 23.5715 23.5715 23.5715H6.42868C5.67091 23.5715 4.94419 23.2704 4.40837 22.7346C3.87255 22.1988 3.57153 21.4721 3.57153 20.7143V10.7143C3.57153 9.95656 3.87255 9.22983 4.40837 8.69402C4.94419 8.1582 5.67091 7.85718 6.42868 7.85718V7.85718Z" stroke="black" stroke-linecap="round" stroke-linejoin="round"/>
<path fill-rule="evenodd" clip-rule="evenodd" d="M2.85718 12.8572H27.1429V15.7143H2.85718V12.8572Z" fill="black"/>
</svg>
