<svg width="30" height="30" viewBox="0 0 30 30" fill="none" xmlns="http://www.w3.org/2000/svg">
<path d="M26.4285 16.4286V20.7143C26.4285 22.5714 21.9513 25 16.4285 25C10.9056 25 6.42847 22.5714 6.42847 20.7143V17.1429" stroke="black" stroke-linecap="round" stroke-linejoin="round"/>
<path d="M6.84863 17.5128C8.08435 19.1528 11.9058 20.6914 16.4286 20.6914C21.9515 20.6914 26.4286 18.3971 26.4286 16.4257C26.4286 15.3186 25.0186 14.1057 22.8058 13.2543" stroke="black" stroke-linecap="round" stroke-linejoin="round"/>
<path d="M22.1428 9.28577V13.5715C22.1428 15.4286 17.6657 17.8572 12.1428 17.8572C6.61997 17.8572 2.14282 15.4286 2.14282 13.5715V9.28577" stroke="black" stroke-linecap="round" stroke-linejoin="round"/>
<path fill-rule="evenodd" clip-rule="evenodd" d="M12.1428 13.5486C17.6657 13.5486 22.1428 11.2543 22.1428 9.28286C22.1428 7.31 17.6657 5 12.1428 5C6.61997 5 2.14282 7.31 2.14282 9.28286C2.14282 11.2543 6.61997 13.5486 12.1428 13.5486Z" stroke="black" stroke-linecap="round" stroke-linejoin="round"/>
</svg>
