<svg width="30" height="30" viewBox="0 0 30 30" fill="none" xmlns="http://www.w3.org/2000/svg">
<path fill-rule="evenodd" clip-rule="evenodd" d="M12.1428 3.57141C13.2795 3.57141 14.3696 4.02294 15.1733 4.82667C15.977 5.6304 16.4285 6.72048 16.4285 7.85713V10.7143C16.4285 11.2771 16.3177 11.8344 16.1023 12.3543C15.8869 12.8743 15.5712 13.3468 15.1733 13.7447C14.7753 14.1427 14.3029 14.4584 13.7829 14.6738C13.2629 14.8891 12.7056 15 12.1428 15C11.58 15 11.0227 14.8891 10.5028 14.6738C9.98278 14.4584 9.51033 14.1427 9.11236 13.7447C8.7144 13.3468 8.39872 12.8743 8.18334 12.3543C7.96796 11.8344 7.85711 11.2771 7.85711 10.7143V7.85713C7.85711 6.72048 8.30864 5.6304 9.11236 4.82667C9.91609 4.02294 11.0062 3.57141 12.1428 3.57141V3.57141ZM22.1428 23.5714V22.5314C22.1428 17.9786 16.8771 15 12.1428 15C7.40854 15 2.14282 17.9786 2.14282 22.5314V23.5714C2.14282 23.9503 2.29333 24.3137 2.56124 24.5816C2.82915 24.8495 3.19251 25 3.57139 25H20.7143C21.0931 25 21.4565 24.8495 21.7244 24.5816C21.9923 24.3137 22.1428 23.9503 22.1428 23.5714Z" stroke="black" stroke-linecap="round" stroke-linejoin="round"/>
<path fill-rule="evenodd" clip-rule="evenodd" d="M17.8857 3.82568C18.7144 4.12549 19.4305 4.67336 19.9367 5.39473C20.4428 6.11609 20.7143 6.9759 20.7143 7.85711V9.28568C20.7143 11.1385 19.5029 12.9728 17.8572 13.5714C18.82 12.2585 19.3 10.5914 19.3 8.5714C19.3 6.5514 18.8272 4.96711 17.8857 3.82568ZM25 25H26.4286C26.8075 25 27.1708 24.8495 27.4388 24.5816C27.7067 24.3136 27.8572 23.9503 27.8572 23.5714V22.5314C27.8572 19.4314 25.4143 17.06 22.3615 15.8643C22.3615 15.8643 26.4286 19.2857 25 25Z" fill="black" stroke="black" stroke-linecap="round" stroke-linejoin="round"/>
</svg>
