<svg width="40" height="40" viewBox="0 0 40 40" fill="none" xmlns="http://www.w3.org/2000/svg">
<path d="M19.0477 8.57147H10.4763C9.46592 8.57147 8.49696 8.97283 7.78253 9.68726C7.06811 10.4017 6.66675 11.3706 6.66675 12.381V29.5239C6.66675 30.5342 7.06811 31.5032 7.78253 32.2176C8.49696 32.932 9.46592 33.3334 10.4763 33.3334H29.5239C30.5342 33.3334 31.5032 32.932 32.2176 32.2176C32.932 31.5032 33.3334 30.5342 33.3334 29.5239V20.9524" stroke="black" stroke-linecap="round" stroke-linejoin="round"/>
<path d="M29.524 10.4762L31.3392 12.381M33.3335 6.60383C33.8413 7.12889 34.1225 7.83243 34.1164 8.56284C34.1103 9.29324 33.8175 9.99203 33.3011 10.5086L20.0002 23.8095L14.2859 25.7143L16.1907 20L29.4992 6.57907C29.9671 6.1076 30.5932 5.82637 31.2564 5.78978C31.9196 5.75319 32.5728 5.96384 33.0897 6.38097L33.3335 6.60383Z" stroke="black" stroke-linecap="round" stroke-linejoin="round"/>
</svg>
