<svg width="40" height="40" viewBox="0 0 40 40" fill="none" xmlns="http://www.w3.org/2000/svg">
<path d="M35.2382 21.9047V27.6189C35.2382 30.0951 29.2687 33.3332 21.9049 33.3332C14.5411 33.3332 8.57153 30.0951 8.57153 27.6189V22.857" stroke="black" stroke-linecap="round" stroke-linejoin="round"/>
<path d="M9.13135 23.3505C10.779 25.5371 15.8742 27.5886 21.9047 27.5886C29.2685 27.5886 35.238 24.5295 35.238 21.9009C35.238 20.4247 33.358 18.8076 30.4075 17.6724" stroke="black" stroke-linecap="round" stroke-linejoin="round"/>
<path d="M29.5238 12.3809V18.0951C29.5238 20.5713 23.5543 23.8094 16.1905 23.8094C8.8267 23.8094 2.85718 20.5713 2.85718 18.0951V12.3809" stroke="black" stroke-linecap="round" stroke-linejoin="round"/>
<path fill-rule="evenodd" clip-rule="evenodd" d="M16.1905 18.0647C23.5543 18.0647 29.5238 15.0057 29.5238 12.3771C29.5238 9.74663 23.5543 6.66663 16.1905 6.66663C8.8267 6.66663 2.85718 9.74663 2.85718 12.3771C2.85718 15.0057 8.8267 18.0647 16.1905 18.0647Z" stroke="black" stroke-linecap="round" stroke-linejoin="round"/>
</svg>
