<svg width="40" height="40" viewBox="0 0 40 40" fill="none" xmlns="http://www.w3.org/2000/svg">
<path fill-rule="evenodd" clip-rule="evenodd" d="M12.2401 8.57714L27.6572 8.57143C28.1361 8.57133 28.5974 8.7516 28.9493 9.07635C29.3013 9.40109 29.518 9.84648 29.5563 10.3238L31.2591 31.2743C31.2794 31.5237 31.2504 31.7746 31.1738 32.0128C31.0971 32.251 30.9742 32.4718 30.8122 32.6624C30.6501 32.8531 30.4521 33.01 30.2294 33.1242C30.0068 33.2383 29.7638 33.3074 29.5144 33.3276L29.362 33.3333H10.6286C10.1235 33.3333 9.63898 33.1327 9.28177 32.7754C8.92456 32.4182 8.72388 31.9337 8.72388 31.4286L8.72959 31.2819L10.341 10.3352C10.378 9.85689 10.5941 9.41009 10.9461 9.08416C11.2982 8.75822 11.7603 8.57716 12.2401 8.57714V8.57714Z" stroke="black" stroke-linecap="round" stroke-linejoin="round"/>
<path d="M25.7145 16.1905V17.419C25.7145 19.5238 22.1049 20 20.0002 20C17.8954 20 14.2859 19.2476 14.2859 17.1429V16.1905" stroke="black" stroke-linecap="round" stroke-linejoin="round"/>
</svg>
