<svg width="40" height="40" viewBox="0 0 40 40" fill="none" xmlns="http://www.w3.org/2000/svg">
<path d="M5.71433 26.6667H32.381M19.0477 36.1905C27.501 36.1905 34.2858 29.4743 34.2858 21.0209C34.2858 12.5676 27.501 5.71428 19.0477 5.71428C10.5943 5.71428 3.80957 12.5676 3.80957 21.0209C3.80957 29.4743 10.5943 36.1905 19.0477 36.1905ZM5.71433 15.2381H32.381H5.71433Z" stroke="black" stroke-linecap="round" stroke-linejoin="round"/>
<path fill-rule="evenodd" clip-rule="evenodd" d="M19.0478 36.1905C23.2744 36.1905 26.6668 29.4743 26.6668 21.0209C26.6668 12.5676 23.2744 5.71428 19.0478 5.71428C14.8211 5.71428 11.4287 12.5676 11.4287 21.0209C11.4287 29.4743 14.8211 36.1905 19.0478 36.1905Z" stroke="black" stroke-linecap="round" stroke-linejoin="round"/>
</svg>
