<svg width="40" height="40" viewBox="0 0 40 40" fill="none" xmlns="http://www.w3.org/2000/svg">
<path d="M29.5239 16.1905H33.3334C33.8386 16.1905 34.323 15.9898 34.6803 15.6326C35.0375 15.2754 35.2382 14.7909 35.2382 14.2857V10.4762C35.2382 9.971 35.0375 9.48652 34.6803 9.1293C34.323 8.77209 33.8386 8.57141 33.3334 8.57141H6.66672C6.16155 8.57141 5.67707 8.77209 5.31985 9.1293C4.96264 9.48652 4.76196 9.971 4.76196 10.4762V14.2857C4.76196 14.7909 4.96264 15.2754 5.31985 15.6326C5.67707 15.9898 6.16155 16.1905 6.66672 16.1905H10.4762" stroke="black" stroke-linecap="round" stroke-linejoin="round"/>
<path fill-rule="evenodd" clip-rule="evenodd" d="M10.4763 8.57141H29.5239V30.4762C29.5239 30.9813 29.3233 31.4658 28.966 31.823C28.6088 32.1803 28.1243 32.3809 27.6192 32.3809H12.3811C11.8759 32.3809 11.3914 32.1803 11.0342 31.823C10.677 31.4658 10.4763 30.9813 10.4763 30.4762V8.57141Z" stroke="black" stroke-linecap="round" stroke-linejoin="round"/>
<path d="M20 25.7142V14.2856M16.1904 21.9047L20 25.7142L23.8095 21.9047H16.1904Z" stroke="black" stroke-linecap="round" stroke-linejoin="round"/>
</svg>
