<svg width="30" height="30" viewBox="0 0 30 30" fill="none" xmlns="http://www.w3.org/2000/svg">
<path fill-rule="evenodd" clip-rule="evenodd" d="M14.9999 26.4857L15.9013 25.47C16.9242 24.2986 17.8442 23.1871 18.6628 22.13L19.3385 21.2386C22.1599 17.4371 23.5713 14.42 23.5713 12.19C23.5713 7.42998 19.7342 3.57141 14.9999 3.57141C10.2656 3.57141 6.42847 7.42998 6.42847 12.19C6.42847 14.42 7.8399 17.4371 10.6613 21.2386L11.337 22.13C12.5048 23.6263 13.7266 25.0796 14.9999 26.4871V26.4857Z" stroke="black" stroke-linecap="round" stroke-linejoin="round"/>
<path d="M14.9999 15.7143C16.9723 15.7143 18.5713 14.1153 18.5713 12.1428C18.5713 10.1704 16.9723 8.57141 14.9999 8.57141C13.0275 8.57141 11.4285 10.1704 11.4285 12.1428C11.4285 14.1153 13.0275 15.7143 14.9999 15.7143Z" stroke="black" stroke-linecap="round" stroke-linejoin="round"/>
</svg>