<svg width="139" height="174" viewBox="0 0 139 174" fill="none" xmlns="http://www.w3.org/2000/svg">
<g filter="url(#filter0_d_111_885)">
<path d="M93.5942 103.859C93.6753 104.342 93.472 104.931 92.8531 105.612C92.2391 106.288 91.2726 106.989 90.0011 107.663C87.463 109.01 83.8121 110.201 79.6527 110.898C75.4932 111.595 71.6537 111.66 68.8152 111.214C67.3932 110.991 66.2511 110.644 65.4502 110.205C64.643 109.763 64.2589 109.273 64.1779 108.789C64.0968 108.305 64.3001 107.717 64.9189 107.035C65.5329 106.359 66.4994 105.659 67.7709 104.984C70.309 103.637 73.9599 102.447 78.1194 101.75C82.2789 101.053 86.1184 100.988 88.9569 101.433C90.3789 101.656 91.5209 102.003 92.3218 102.442C93.129 102.885 93.5131 103.375 93.5942 103.859Z" fill="#C4C4C4" stroke="black"/>
<mask id="path-2-inside-1_111_885" fill="white">
<path fill-rule="evenodd" clip-rule="evenodd" d="M81.921 111.053C83.6639 109.627 84.6094 107.198 84.183 104.654C83.9235 103.106 83.1976 101.764 82.193 100.775C88.9062 100.212 94.1483 101.384 94.5466 103.76C94.9829 106.364 89.4529 109.496 81.921 111.053ZM76.0509 111.877C69.5531 112.352 64.5334 111.18 64.144 108.856C63.7934 106.765 67.2942 104.332 72.5901 102.649C72.0629 103.85 71.868 105.246 72.1081 106.678C72.5154 109.108 74.0714 111.03 76.0509 111.877Z"/>
</mask>
<path fill-rule="evenodd" clip-rule="evenodd" d="M81.921 111.053C83.6639 109.627 84.6094 107.198 84.183 104.654C83.9235 103.106 83.1976 101.764 82.193 100.775C88.9062 100.212 94.1483 101.384 94.5466 103.76C94.9829 106.364 89.4529 109.496 81.921 111.053ZM76.0509 111.877C69.5531 112.352 64.5334 111.18 64.144 108.856C63.7934 106.765 67.2942 104.332 72.5901 102.649C72.0629 103.85 71.868 105.246 72.1081 106.678C72.5154 109.108 74.0714 111.03 76.0509 111.877Z" fill="black"/>
<path d="M84.183 104.654L83.1967 104.819L84.183 104.654ZM81.921 111.053L81.2879 110.279L82.1235 112.032L81.921 111.053ZM82.193 100.775L82.1095 99.7781L79.9402 99.9598L81.4914 101.487L82.193 100.775ZM94.5466 103.76L93.5603 103.926V103.926L94.5466 103.76ZM76.0509 111.877L76.1238 112.874L76.4443 110.958L76.0509 111.877ZM64.144 108.856L63.1578 109.021L64.144 108.856ZM72.5901 102.649L73.5057 103.051L74.3948 101.026L72.2872 101.696L72.5901 102.649ZM72.1081 106.678L71.1219 106.843L72.1081 106.678ZM83.1967 104.819C83.5667 107.027 82.7401 109.091 81.2879 110.279L82.5542 111.827C84.5877 110.163 85.6521 107.37 85.1692 104.489L83.1967 104.819ZM81.4914 101.487C82.3458 102.328 82.9721 103.479 83.1967 104.819L85.1692 104.489C84.8749 102.733 84.0494 101.199 82.8946 100.062L81.4914 101.487ZM82.2765 101.771C85.5676 101.495 88.4437 101.651 90.5079 102.139C91.5433 102.383 92.3202 102.699 92.8373 103.044C93.3532 103.388 93.522 103.697 93.5603 103.926L95.5328 103.595C95.3719 102.635 94.7362 101.907 93.9473 101.38C93.1598 100.855 92.1319 100.467 90.9678 100.192C88.6331 99.6406 85.5315 99.4915 82.1095 99.7781L82.2765 101.771ZM93.5603 103.926C93.6021 104.175 93.5264 104.571 93.0515 105.136C92.5804 105.696 91.8038 106.312 90.724 106.932C88.5723 108.167 85.4147 109.309 81.7186 110.073L82.1235 112.032C85.9593 111.239 89.3325 110.037 91.7198 108.666C92.9094 107.983 93.9042 107.23 94.5827 106.422C95.2573 105.62 95.7092 104.647 95.5328 103.595L93.5603 103.926ZM75.9781 110.88C72.7935 111.112 70.0274 110.936 68.0473 110.445C67.0543 110.199 66.3125 109.887 65.8199 109.55C65.3297 109.214 65.1677 108.914 65.1302 108.691L63.1578 109.021C63.315 109.96 63.9265 110.678 64.6901 111.2C65.4512 111.721 66.4436 112.108 67.5664 112.387C69.8179 112.944 72.8105 113.116 76.1238 112.874L75.9781 110.88ZM65.1302 108.691C65.0963 108.488 65.1379 108.198 65.4059 107.791C65.6781 107.378 66.1462 106.908 66.8356 106.41C68.2123 105.414 70.3029 104.425 72.893 103.602L72.2872 101.696C69.5814 102.556 67.2736 103.625 65.6636 104.789C64.8597 105.37 64.1874 106.006 63.7362 106.69C63.281 107.381 63.0165 108.178 63.1578 109.021L65.1302 108.691ZM73.0943 106.513C72.8865 105.273 73.0566 104.074 73.5057 103.051L71.6745 102.247C71.0691 103.625 70.8495 105.218 71.1219 106.843L73.0943 106.513ZM76.4443 110.958C74.79 110.25 73.4475 108.62 73.0943 106.513L71.1219 106.843C71.5832 109.596 73.3528 111.81 75.6576 112.796L76.4443 110.958Z" fill="black" mask="url(#path-2-inside-1_111_885)"/>
<path d="M41.8929 21.5169C37.2622 30.6639 51.7671 47.3245 59.5984 54.5115C66.2948 61.4806 77.1678 69.9307 67.0892 47.9779C54.4911 20.5369 45.9788 19.8835 41.8929 21.5169Z" fill="#F1F2F2" stroke="black"/>
<path d="M86.2766 38.6612C87.0473 40.7163 86.5977 45.5115 86.2766 47.6523C86.2766 53.1112 88.0106 61.5885 94.9466 51.8267C101.883 42.0649 98.6929 32.5601 96.2311 29.0278C92.5918 31.3826 85.5059 36.6061 86.2766 38.6612Z" fill="#F1F2F2" stroke="black"/>
<path d="M46.459 21.3212C52.8812 24.6607 61.7653 41.7652 65.4045 49.9C67.8664 54.8237 71.8267 61.5243 67.9734 48.9367C63.1568 33.2023 52.5601 23.5689 46.459 21.3212Z" fill="#FFFBFB"/>
<path d="M73.1112 43.4778C78.7627 46.0467 90.8793 34.9149 96.2312 29.0278C92.3779 25.4956 91.0934 24.5323 87.5612 23.8901C73.7534 26.4589 71.1845 36.7345 73.1112 43.4778Z" fill="#FFFBFB"/>
<path d="M46.459 21.3212C52.8812 24.6607 61.7653 41.7652 65.4045 49.9C67.8664 54.8237 71.8267 61.5243 67.9734 48.9367C63.1568 33.2023 52.5601 23.5689 46.459 21.3212Z" stroke="black"/>
<path d="M73.1112 43.4778C78.7627 46.0467 90.8793 34.9149 96.2312 29.0278C92.3779 25.4956 91.0934 24.5323 87.5612 23.8901C73.7534 26.4589 71.1845 36.7345 73.1112 43.4778Z" stroke="black"/>
<path d="M57.6978 60.4967C60.7804 49.9642 72.0407 46.4748 77.2855 46.0467C91.4144 45.276 98.8 55.3589 100.727 60.4967C101.583 63.6007 102.075 71.4144 97.1944 77.8366C91.0933 85.8644 71.8267 87.1489 67.3311 83.6166C62.8356 80.0844 53.8444 73.6622 57.6978 60.4967Z" fill="#FFFBFB" stroke="black"/>
<path d="M95.2679 66.9189C92.0568 85.5433 68.5086 82.5463 60.5879 76.8733C60.5879 78.8 68.6157 88.4333 82.1023 85.5433C96.5523 82.4469 98.1579 78.1578 101.69 63.0656C100.085 61.46 99.1212 49.9 83.7079 46.3678C93.9834 49.9 98.479 58.2489 95.2679 66.9189Z" fill="#C4C4C4"/>
<path d="M58.34 72.6988C63.1566 77.5155 68.6155 79.1211 68.6155 79.1211L72.1477 76.5522L75.68 80.4055L79.8544 78.1577C79.8544 78.1577 89.1666 78.7999 95.9099 76.5522M58.34 72.6988C58.34 72.6988 59.9455 79.7633 68.6155 83.9377C77.2855 88.1122 89.8088 82.6533 89.8088 82.6533C89.8088 82.6533 93.6622 81.3688 97.1944 78.1577M58.34 72.6988C57.6977 71.4144 56.606 67.3684 57.3766 61.46C58.34 54.0744 68.9366 46.0466 77.9277 46.0466C86.9188 46.0466 96.2311 49.9 101.369 62.1022" stroke="black"/>
<path d="M103.938 71.0934C105.222 66.2125 102.76 62.8515 101.369 61.7811C96.231 61.7811 95.2677 68.8456 95.2677 70.13C95.2677 71.0383 95.2677 78.4789 97.1943 78.1578C99.121 77.8367 102.332 77.1945 103.938 71.0934Z" fill="black"/>
<path d="M58.661 73.6623C57.9117 73.9834 56.1563 74.0476 55.1288 71.7356C53.8443 68.8456 54.4866 63.0656 55.1288 62.1023C55.771 61.1389 56.0921 60.4967 57.3766 60.4967M101.369 61.7811C102.76 62.8515 105.222 66.2125 103.938 71.0934C102.332 77.1945 99.121 77.8367 97.1943 78.1578C95.2677 78.4789 95.2677 71.0383 95.2677 70.13C95.2677 68.8456 96.231 61.7811 101.369 61.7811Z" stroke="black"/>
<path d="M58.6612 73.6622C56.863 71.0933 57.0556 63.8148 57.3767 60.4967C54.8078 60.2398 54.3797 64.6711 54.4867 66.9189C54.0586 69.1667 54.2941 73.6622 58.6612 73.6622Z" fill="black"/>
<path d="M71.8267 88.4333C67.7165 88.1764 67.3312 85.1152 67.6523 83.6167C78.249 88.1122 85.3134 84.2589 93.0201 81.0478C94.6256 86.5067 89.8089 87.1489 88.8456 87.7911C87.8823 88.4333 77.2856 89.7178 71.8267 88.4333Z" fill="black"/>
<path d="M58.6612 73.6622C56.863 71.0933 57.0556 63.8148 57.3767 60.4967C54.8078 60.2398 54.3797 64.6711 54.4867 66.9189C54.0586 69.1667 54.2941 73.6622 58.6612 73.6622Z" stroke="black"/>
<path d="M71.8267 88.4333C67.7165 88.1764 67.3312 85.1152 67.6523 83.6167C78.249 88.1122 85.3134 84.2589 93.0201 81.0478C94.6256 86.5067 89.8089 87.1489 88.8456 87.7911C87.8823 88.4333 77.2856 89.7178 71.8267 88.4333Z" stroke="black"/>
<circle cx="69.9001" cy="67.8822" r="2.17667" fill="black" stroke="#AAAAAA" stroke-width="0.5"/>
<circle cx="80.8178" cy="68.5244" r="2.17667" fill="black" stroke="#AAAAAA" stroke-width="0.5"/>
<path d="M107.149 97.1033C105.864 91.4517 101.69 90.8951 99.7632 91.3233C100.084 95.8188 100.084 105.452 101.369 106.094C102.653 106.737 108.754 104.168 107.149 97.1033Z" fill="#C4C4C4" stroke="black"/>
<path d="M73.1112 111.553C67.2028 111.553 67.6523 95.4978 68.6157 87.47C72.7901 89.3967 83.5152 91.5802 93.0201 84.9011C101.754 90.8096 103.082 98.923 102.653 102.241C102.439 104.917 100.47 110.397 94.3045 110.911C86.5979 111.553 82.0657 109.948 77.9096 107.379C77.2672 109.725 75.8977 111.553 73.1112 111.553Z" fill="#C4C4C4"/>
<path d="M78.249 97.4245C78.049 98.2243 78.9697 103.507 77.9096 107.379M77.9096 107.379C77.2672 109.725 75.8977 111.553 73.1112 111.553C67.2028 111.553 67.6523 95.4978 68.6157 87.47C72.7901 89.3967 83.5152 91.5802 93.0201 84.9011C101.754 90.8096 103.082 98.923 102.653 102.241C102.439 104.917 100.47 110.397 94.3045 110.911C86.5979 111.553 82.0657 109.948 77.9096 107.379Z" stroke="black"/>
<path d="M77.9277 104.81C75.6157 107.636 70.4351 105.666 68.6155 104.81C68.6155 108.021 70.5421 111.553 73.111 111.553C75.6799 111.553 77.6066 109.627 77.9277 104.81Z" fill="black" stroke="black"/>
<path d="M91.067 107.203C88.8886 109.685 84.8153 107.381 83.4006 106.416C83.0881 109.458 84.3305 112.967 86.4454 113.184C88.5602 113.402 90.3339 111.739 91.067 107.203Z" fill="black" stroke="black"/>
<path d="M85.9555 90.681C83.6007 96.9962 80.3039 110.333 85.9555 113.159C92.3777 114.122 93.6621 95.8188 92.6988 90.681" stroke="black"/>
<path d="M67.01 85.2222C69.5789 87.7911 84.9922 89.3967 93.9833 82.6533" stroke="#FFFCFC"/>
<rect x="76.3391" y="86.2075" width="5.78" height="2.56889" rx="1.28444" transform="rotate(-2.97716 76.3391 86.2075)" fill="#F1F2F2"/>
<path d="M68.0452 104.191C67.7213 104.191 68.369 109.995 72.5788 110.911C70.312 109.689 69.3405 107.551 68.0452 104.191Z" fill="#FFFBFB"/>
<path d="M92.6563 85.8644C97.8376 91.7697 105.674 104.863 95.5708 109.995C103.667 107.551 105.61 95.0278 92.6563 85.8644Z" fill="#FFFBFB"/>
<path fill-rule="evenodd" clip-rule="evenodd" d="M101.574 91.6449C103.332 91.6193 105.966 92.6515 106.873 97.03C107.973 102.346 104.725 104.876 102.947 105.277C104.46 104.27 105.536 101.7 105.536 98.6875C105.536 94.8245 103.767 91.6879 101.574 91.6449ZM101.222 91.6646C101.043 91.6824 100.877 91.7111 100.727 91.7477C100.727 91.7599 100.728 91.7722 100.729 91.7845C100.89 91.7271 101.055 91.6868 101.222 91.6646Z" fill="white"/>
</g>
<defs>
<filter id="filter0_d_111_885" x="0.5" y="0.5" width="147.416" height="173.203" filterUnits="userSpaceOnUse" color-interpolation-filters="sRGB">
<feFlood flood-opacity="0" result="BackgroundImageFix"/>
<feColorMatrix in="SourceAlpha" type="matrix" values="0 0 0 0 0 0 0 0 0 0 0 0 0 0 0 0 0 0 127 0" result="hardAlpha"/>
<feOffset dy="20"/>
<feGaussianBlur stdDeviation="20"/>
<feComposite in2="hardAlpha" operator="out"/>
<feColorMatrix type="matrix" values="0 0 0 0 0 0 0 0 0 0 0 0 0 0 0 0 0 0 0.2 0"/>
<feBlend mode="normal" in2="BackgroundImageFix" result="effect1_dropShadow_111_885"/>
<feBlend mode="normal" in="SourceGraphic" in2="effect1_dropShadow_111_885" result="shape"/>
</filter>
</defs>
</svg>
