<svg width="139" height="174" viewBox="0 0 139 174" fill="none" xmlns="http://www.w3.org/2000/svg">
<g filter="url(#filter0_d_111_951)">
<path d="M45.8218 103.859C45.7407 104.342 45.944 104.931 46.5629 105.612C47.1769 106.288 48.1434 106.989 49.4149 107.663C51.953 109.01 55.6039 110.201 59.7634 110.898C63.9228 111.595 67.7624 111.66 70.6009 111.214C72.0228 110.991 73.1649 110.644 73.9658 110.205C74.773 109.763 75.1571 109.273 75.2382 108.789C75.3192 108.305 75.116 107.717 74.4971 107.035C73.8831 106.359 72.9166 105.659 71.6451 104.984C69.107 103.637 65.4561 102.447 61.2966 101.75C57.1372 101.053 53.2976 100.988 50.4591 101.433C49.0372 101.656 47.8951 102.003 47.0942 102.442C46.287 102.885 45.9029 103.375 45.8218 103.859Z" fill="#C4C4C4" stroke="black"/>
<mask id="path-2-inside-1_111_951" fill="white">
<path fill-rule="evenodd" clip-rule="evenodd" d="M57.495 111.053C55.7521 109.627 54.8066 107.198 55.2331 104.654C55.4926 103.106 56.2184 101.764 57.223 100.775C50.5099 100.212 45.2678 101.384 44.8695 103.761C44.4331 106.364 49.9631 109.496 57.495 111.053ZM63.3651 111.877C69.8629 112.352 74.8826 111.18 75.272 108.856C75.6226 106.765 72.1219 104.332 66.8259 102.649C67.3532 103.85 67.548 105.246 67.3079 106.678C66.9006 109.108 65.3446 111.03 63.3651 111.877Z"/>
</mask>
<path fill-rule="evenodd" clip-rule="evenodd" d="M57.495 111.053C55.7521 109.627 54.8066 107.198 55.2331 104.654C55.4926 103.106 56.2184 101.764 57.223 100.775C50.5099 100.212 45.2678 101.384 44.8695 103.761C44.4331 106.364 49.9631 109.496 57.495 111.053ZM63.3651 111.877C69.8629 112.352 74.8826 111.18 75.272 108.856C75.6226 106.765 72.1219 104.332 66.8259 102.649C67.3532 103.85 67.548 105.246 67.3079 106.678C66.9006 109.108 65.3446 111.03 63.3651 111.877Z" fill="black"/>
<path d="M55.2331 104.654L56.2193 104.819L55.2331 104.654ZM57.495 111.053L58.1282 110.279L57.2925 112.032L57.495 111.053ZM57.223 100.775L57.3065 99.7781L59.4758 99.9598L57.9247 101.487L57.223 100.775ZM44.8694 103.76L45.8557 103.926V103.926L44.8694 103.76ZM63.3651 111.877L63.2923 112.874L62.9717 110.958L63.3651 111.877ZM75.272 108.856L76.2583 109.021L75.272 108.856ZM66.8259 102.649L65.9103 103.051L65.0212 101.026L67.1288 101.696L66.8259 102.649ZM67.3079 106.678L68.2942 106.843L67.3079 106.678ZM56.2193 104.819C55.8493 107.027 56.6759 109.091 58.1282 110.279L56.8618 111.827C54.8283 110.163 53.7639 107.37 54.2468 104.489L56.2193 104.819ZM57.9247 101.487C57.0702 102.328 56.444 103.479 56.2193 104.819L54.2468 104.489C54.5411 102.733 55.3666 101.199 56.5214 100.062L57.9247 101.487ZM57.1396 101.771C53.8484 101.495 50.9723 101.651 48.9081 102.139C47.8727 102.383 47.0958 102.699 46.5787 103.044C46.0628 103.388 45.894 103.697 45.8557 103.926L43.8832 103.595C44.0441 102.635 44.6798 101.907 45.4687 101.38C46.2562 100.855 47.2841 100.467 48.4482 100.192C50.7829 99.6406 53.8845 99.4915 57.3065 99.7781L57.1396 101.771ZM45.8557 103.926C45.8139 104.175 45.8897 104.571 46.3645 105.136C46.8356 105.696 47.6122 106.312 48.6921 106.932C50.8437 108.167 54.0014 109.309 57.6974 110.073L57.2925 112.032C53.4567 111.239 50.0835 110.037 47.6962 108.666C46.5066 107.983 45.5118 107.23 44.8333 106.422C44.1587 105.62 43.7068 104.647 43.8832 103.595L45.8557 103.926ZM63.4379 110.88C66.6225 111.112 69.3886 110.936 71.3687 110.445C72.3617 110.199 73.1035 109.887 73.5961 109.55C74.0863 109.214 74.2483 108.914 74.2858 108.691L76.2583 109.021C76.101 109.96 75.4895 110.678 74.7259 111.2C73.9648 111.721 72.9725 112.108 71.8496 112.387C69.5981 112.944 66.6055 113.116 63.2923 112.874L63.4379 110.88ZM74.2858 108.691C74.3198 108.488 74.2781 108.198 74.0101 107.791C73.738 107.378 73.2698 106.908 72.5804 106.41C71.2037 105.414 69.1131 104.425 66.523 103.602L67.1288 101.696C69.8346 102.556 72.1424 103.625 73.7524 104.789C74.5564 105.37 75.2286 106.006 75.6798 106.69C76.135 107.381 76.3996 108.178 76.2583 109.021L74.2858 108.691ZM66.3217 106.513C66.5295 105.273 66.3595 104.074 65.9103 103.051L67.7415 102.247C68.3469 103.625 68.5665 105.218 68.2942 106.843L66.3217 106.513ZM62.9717 110.958C64.626 110.25 65.9685 108.62 66.3217 106.513L68.2942 106.843C67.8328 109.596 66.0633 111.81 63.7584 112.796L62.9717 110.958Z" fill="black" mask="url(#path-2-inside-1_111_951)"/>
<path d="M97.5231 21.5169C102.154 30.6639 87.6489 47.3245 79.8176 54.5115C73.1213 61.4806 62.2482 69.9307 72.3268 47.9779C84.925 20.5369 93.4372 19.8835 97.5231 21.5169Z" fill="#F1F2F2" stroke="black"/>
<path d="M53.1394 38.6612C52.3687 40.7163 52.8183 45.5115 53.1394 47.6523C53.1394 53.1112 51.4054 61.5885 44.4694 51.8267C37.5334 42.0649 40.7231 32.5601 43.185 29.0278C46.8242 31.3826 53.9101 36.6061 53.1394 38.6612Z" fill="#F1F2F2" stroke="black"/>
<path d="M92.957 21.3212C86.5348 24.6607 77.6507 41.7652 74.0115 49.9C71.5496 54.8237 67.5893 61.5243 71.4426 48.9367C76.2593 33.2023 86.8559 23.5689 92.957 21.3212Z" fill="#FFFBFB"/>
<path d="M66.3048 43.4778C60.6533 46.0467 48.5367 34.9149 43.1848 29.0278C47.0382 25.4956 48.3226 24.5323 51.8548 23.8901C65.6626 26.4589 68.2315 36.7345 66.3048 43.4778Z" fill="#FFFBFB"/>
<path d="M92.957 21.3212C86.5348 24.6607 77.6507 41.7652 74.0115 49.9C71.5496 54.8237 67.5893 61.5243 71.4426 48.9367C76.2593 33.2023 86.8559 23.5689 92.957 21.3212Z" stroke="black"/>
<path d="M66.3048 43.4778C60.6533 46.0467 48.5367 34.9149 43.1848 29.0278C47.0382 25.4956 48.3226 24.5323 51.8548 23.8901C65.6626 26.4589 68.2315 36.7345 66.3048 43.4778Z" stroke="black"/>
<path d="M81.7182 60.4967C78.6356 49.9642 67.3753 46.4748 62.1305 46.0467C48.0016 45.276 40.616 55.3589 38.6894 60.4967C37.8331 63.6007 37.3407 71.4144 42.2216 77.8366C48.3227 85.8644 67.5894 87.1489 72.0849 83.6166C76.5805 80.0844 85.5716 73.6622 81.7182 60.4967Z" fill="#FFFBFB" stroke="black"/>
<path d="M44.1481 66.9189C47.3593 85.5433 70.9074 82.5463 78.8281 76.8733C78.8281 78.8 70.8004 88.4333 57.3137 85.5433C42.8637 82.4469 41.2581 78.1578 37.7259 63.0656C39.3315 61.46 40.2948 49.9 55.7081 46.3678C45.4326 49.9 40.937 58.2489 44.1481 66.9189Z" fill="#C4C4C4"/>
<path d="M81.076 72.6988C76.2594 77.5155 70.8005 79.1211 70.8005 79.1211L67.2683 76.5522L63.7361 80.4055L59.5616 78.1577C59.5616 78.1577 50.2494 78.7999 43.5061 76.5522M81.076 72.6988C81.076 72.6988 79.4705 79.7633 70.8005 83.9377C62.1305 88.1122 49.6072 82.6533 49.6072 82.6533C49.6072 82.6533 45.7538 81.3688 42.2216 78.1577M81.076 72.6988C81.7183 71.4144 82.81 67.3684 82.0394 61.46C81.076 54.0744 70.4794 46.0466 61.4883 46.0466C52.4972 46.0466 43.185 49.9 38.0472 62.1022" stroke="black"/>
<path d="M35.4784 71.0934C34.1939 66.2125 36.6558 62.8515 38.0473 61.7811C43.185 61.7811 44.1484 68.8456 44.1484 70.13C44.1484 71.0383 44.1484 78.4789 42.2217 78.1578C40.295 77.8367 37.0839 77.1945 35.4784 71.0934Z" fill="black"/>
<path d="M80.755 73.6623C81.5043 73.9834 83.2597 74.0476 84.2872 71.7356C85.5717 68.8456 84.9295 63.0656 84.2872 62.1023C83.645 61.1389 83.3239 60.4967 82.0395 60.4967M38.0473 61.7811C36.6558 62.8515 34.1939 66.2125 35.4784 71.0934C37.0839 77.1945 40.295 77.8367 42.2217 78.1578C44.1484 78.4789 44.1484 71.0383 44.1484 70.13C44.1484 68.8456 43.185 61.7811 38.0473 61.7811Z" stroke="black"/>
<path d="M80.7548 73.6622C82.5531 71.0933 82.3604 63.8148 82.0393 60.4967C84.6082 60.2398 85.0363 64.6711 84.9293 66.9189C85.3574 69.1667 85.1219 73.6622 80.7548 73.6622Z" fill="black"/>
<path d="M67.5893 88.4333C71.6995 88.1764 72.0848 85.1152 71.7637 83.6167C61.1671 88.1122 54.1026 84.2589 46.396 81.0478C44.7904 86.5067 49.6071 87.1489 50.5704 87.7911C51.5337 88.4333 62.1304 89.7178 67.5893 88.4333Z" fill="black"/>
<path d="M80.7548 73.6622C82.5531 71.0933 82.3604 63.8148 82.0393 60.4967C84.6082 60.2398 85.0363 64.6711 84.9293 66.9189C85.3574 69.1667 85.1219 73.6622 80.7548 73.6622Z" stroke="black"/>
<path d="M67.5893 88.4333C71.6995 88.1764 72.0848 85.1152 71.7637 83.6167C61.1671 88.1122 54.1026 84.2589 46.396 81.0478C44.7904 86.5067 49.6071 87.1489 50.5704 87.7911C51.5337 88.4333 62.1304 89.7178 67.5893 88.4333Z" stroke="black"/>
<circle r="2.17667" transform="matrix(-1 0 0 1 69.516 67.8822)" fill="black" stroke="#AAAAAA" stroke-width="0.5"/>
<circle r="2.17667" transform="matrix(-1 0 0 1 58.5982 68.5244)" fill="black" stroke="#AAAAAA" stroke-width="0.5"/>
<path d="M32.2673 97.1033C33.5517 91.4517 37.7262 90.8951 39.6528 91.3233C39.3317 95.8188 39.3317 105.452 38.0473 106.094C36.7628 106.737 30.6617 104.168 32.2673 97.1033Z" fill="#C4C4C4" stroke="black"/>
<path d="M66.3048 111.553C72.2132 111.553 71.7637 95.4978 70.8004 87.47C66.6259 89.3967 55.9008 91.5802 46.3959 84.9011C37.6617 90.8096 36.3344 98.923 36.7626 102.241C36.9767 104.917 38.9461 110.397 45.1115 110.911C52.8181 111.553 57.3504 109.948 61.5065 107.379C62.1488 109.725 63.5183 111.553 66.3048 111.553Z" fill="#C4C4C4"/>
<path d="M61.167 97.4245C61.367 98.2243 60.4463 103.507 61.5065 107.379M61.5065 107.379C62.1488 109.725 63.5183 111.553 66.3048 111.553C72.2132 111.553 71.7637 95.4978 70.8004 87.47C66.6259 89.3967 55.9008 91.5802 46.3959 84.9011C37.6617 90.8096 36.3344 98.923 36.7626 102.241C36.9767 104.917 38.9461 110.397 45.1115 110.911C52.8181 111.553 57.3504 109.948 61.5065 107.379Z" stroke="black"/>
<path d="M61.4883 104.81C63.8003 107.636 68.9809 105.666 70.8005 104.81C70.8005 108.021 68.8739 111.553 66.305 111.553C63.7361 111.553 61.8094 109.627 61.4883 104.81Z" fill="black" stroke="black"/>
<path d="M48.3491 107.203C50.5274 109.685 54.6007 107.381 56.0154 106.416C56.3279 109.458 55.0855 112.967 52.9706 113.184C50.8558 113.402 49.0821 111.739 48.3491 107.203Z" fill="black" stroke="black"/>
<path d="M53.4605 90.681C55.8154 96.9962 59.1121 110.333 53.4605 113.159C47.0383 114.122 45.7539 95.8188 46.7172 90.681" stroke="black"/>
<path d="M72.406 85.2222C69.8371 87.7911 54.4238 89.3967 45.4327 82.6533" stroke="#FFFCFC"/>
<rect width="5.78" height="2.56889" rx="1.28444" transform="matrix(-0.99865 -0.0519379 -0.0519379 0.99865 63.0769 86.2075)" fill="#F1F2F2"/>
<path d="M71.3708 104.191C71.6947 104.191 71.047 109.995 66.8372 110.911C69.104 109.689 70.0755 107.551 71.3708 104.191Z" fill="#FFFBFB"/>
<path d="M46.7597 85.8644C41.5784 91.7697 33.7417 104.863 43.8452 109.995C35.7495 107.551 33.8065 95.0278 46.7597 85.8644Z" fill="#FFFBFB"/>
<path fill-rule="evenodd" clip-rule="evenodd" d="M37.8421 91.6449C36.0841 91.6193 33.4496 92.6515 32.5435 97.03C31.4434 102.346 34.6912 104.876 36.4694 105.277C34.9558 104.27 33.8796 101.7 33.8796 98.6875C33.8796 94.8245 35.6495 91.6879 37.8421 91.6449ZM38.1936 91.6646C38.3729 91.6824 38.5394 91.7111 38.6895 91.7477C38.6887 91.7599 38.6879 91.7722 38.6871 91.7845C38.5259 91.7271 38.3612 91.6868 38.1936 91.6646Z" fill="white"/>
</g>
<defs>
<filter id="filter0_d_111_951" x="-8.5" y="0.5" width="147.416" height="173.203" filterUnits="userSpaceOnUse" color-interpolation-filters="sRGB">
<feFlood flood-opacity="0" result="BackgroundImageFix"/>
<feColorMatrix in="SourceAlpha" type="matrix" values="0 0 0 0 0 0 0 0 0 0 0 0 0 0 0 0 0 0 127 0" result="hardAlpha"/>
<feOffset dy="20"/>
<feGaussianBlur stdDeviation="20"/>
<feComposite in2="hardAlpha" operator="out"/>
<feColorMatrix type="matrix" values="0 0 0 0 0 0 0 0 0 0 0 0 0 0 0 0 0 0 0.2 0"/>
<feBlend mode="normal" in2="BackgroundImageFix" result="effect1_dropShadow_111_951"/>
<feBlend mode="normal" in="SourceGraphic" in2="effect1_dropShadow_111_951" result="shape"/>
</filter>
</defs>
</svg>
