<svg width="30" height="30" viewBox="0 0 30 30" fill="none" xmlns="http://www.w3.org/2000/svg">
<path fill-rule="evenodd" clip-rule="evenodd" d="M7.85714 5H22.1429C22.9006 5 23.6273 5.30102 24.1632 5.83684C24.699 6.37266 25 7.09938 25 7.85714V22.1429C25 22.9006 24.699 23.6273 24.1632 24.1632C23.6273 24.699 22.9006 25 22.1429 25H7.85714C7.09938 25 6.37266 24.699 5.83684 24.1632C5.30102 23.6273 5 22.9006 5 22.1429V7.85714C5 7.09938 5.30102 6.37266 5.83684 5.83684C6.37266 5.30102 7.09938 5 7.85714 5V5Z" stroke="black" stroke-linecap="round" stroke-linejoin="round"/>
<path fill-rule="evenodd" clip-rule="evenodd" d="M7.85714 7.85714H22.1429C22.9006 7.85714 23.6273 8.15816 24.1632 8.69398C24.699 9.2298 25 9.95652 25 10.7143V7.85714C25 6.42857 23.7214 5 22.1429 5H7.85714C6.27857 5 5 6.42857 5 7.85714V10.7143C5 9.95652 5.30102 9.2298 5.83684 8.69398C6.37266 8.15816 7.09938 7.85714 7.85714 7.85714Z" fill="black" stroke="black" stroke-linecap="round" stroke-linejoin="round"/>
<path d="M10.7114 20.7143H16.4214M10.7114 15H12.14H10.7114ZM10.7114 12.1428H16.4214H10.7114ZM10.7114 17.8571H19.2786H10.7114Z" stroke="black" stroke-linecap="round" stroke-linejoin="round"/>
</svg>
