<svg width="40" height="40" viewBox="0 0 40 40" fill="none" xmlns="http://www.w3.org/2000/svg">
<path d="M19.0477 8.57141H10.4763C9.46592 8.57141 8.49696 8.97277 7.78253 9.68719C7.06811 10.4016 6.66675 11.3706 6.66675 12.3809V29.5238C6.66675 30.5341 7.06811 31.5031 7.78253 32.2175C8.49696 32.932 9.46592 33.3333 10.4763 33.3333H29.5239C30.5342 33.3333 31.5032 32.932 32.2176 32.2175C32.932 31.5031 33.3334 30.5341 33.3334 29.5238V20.9524" stroke="black" stroke-linecap="round" stroke-linejoin="round"/>
<path d="M29.524 10.4762L31.3392 12.3809M33.3335 6.60377C33.8413 7.12883 34.1225 7.83237 34.1164 8.56278C34.1103 9.29318 33.8175 9.99197 33.3011 10.5085L20.0002 23.8095L14.2859 25.7142L16.1907 20L29.4992 6.57901C29.9671 6.10754 30.5932 5.82631 31.2564 5.78972C31.9196 5.75313 32.5728 5.96377 33.0897 6.38091L33.3335 6.60377Z" stroke="black" stroke-linecap="round" stroke-linejoin="round"/>
</svg>
